HIERARCHY
ROOT Hips
{
	OFFSET 0.000000 0.000000 0.000000
	CHANNELS 6 Xposition Yposition Zposition Xrotation Yrotation Zrotation
	JOINT Spine
	{
		OFFSET 0.000000 0.042231 0.063346
		CHANNELS 3 Xrotation Yrotation Zrotation
		JOINT Spine1
		{
			OFFSET 0.000000 0.014667 0.083179
			CHANNELS 3 Xrotation Yrotation Zrotation
			JOINT Spine2
			{
				OFFSET 0.000000 0.007361 0.084141
				CHANNELS 3 Xrotation Yrotation Zrotation
				JOINT Spine3
				{
					OFFSET 0.000000 0.000000 0.084462
					CHANNELS 3 Xrotation Yrotation Zrotation
					JOINT Neck
					{
						OFFSET 0.000000 -0.031673 0.221713
						CHANNELS 3 Xrotation Yrotation Zrotation
						JOINT Head
						{
							OFFSET 0.000000 -0.020167 0.114371
							CHANNELS 3 Xrotation Yrotation Zrotation
							End Site
							{
								OFFSET 0.000000 0.000000 0.000000
							}
						}
					}
					JOINT RightShoulder
					{
						OFFSET -0.029161 -0.048602 0.157471
						CHANNELS 3 Xrotation Yrotation Zrotation
						JOINT RightArm
						{
							OFFSET -0.144834 0.000000 0.000000
							CHANNELS 3 Xrotation Yrotation Zrotation
							JOINT RightForeArm
							{
								OFFSET -0.274949 0.000000 0.000000
								CHANNELS 3 Xrotation Yrotation Zrotation
								JOINT RightHand
								{
									OFFSET -0.254725 0.000000 0.000000
									CHANNELS 3 Xrotation Yrotation Zrotation
									JOINT RightHandEnd
									{
										OFFSET -0.068160 0.000000 0.000000
										CHANNELS 3 Xrotation Yrotation Zrotation
										End Site
										{
											OFFSET 0.000000 0.000000 0.000000
										}
									}
									JOINT RightHandThumb1
									{
										OFFSET -0.027264 -0.045440 -0.018176
										CHANNELS 3 Xrotation Yrotation Zrotation
										End Site
										{
											OFFSET 0.000000 0.000000 0.000000
										}
									}
								}
							}
						}
					}
					JOINT LeftShoulder
					{
						OFFSET 0.029161 -0.048602 0.157471
						CHANNELS 3 Xrotation Yrotation Zrotation
						JOINT LeftArm
						{
							OFFSET 0.144834 0.000000 0.000000
							CHANNELS 3 Xrotation Yrotation Zrotation
							JOINT LeftForeArm
							{
								OFFSET 0.274949 0.000000 0.000000
								CHANNELS 3 Xrotation Yrotation Zrotation
								JOINT LeftHand
								{
									OFFSET 0.254725 0.000000 0.000000
									CHANNELS 3 Xrotation Yrotation Zrotation
									JOINT LeftHandEnd
									{
										OFFSET 0.068160 0.000000 0.000000
										CHANNELS 3 Xrotation Yrotation Zrotation
										End Site
										{
											OFFSET 0.000000 0.000000 0.000000
										}
									}
									JOINT LeftHandThumb1
									{
										OFFSET 0.027264 -0.045440 -0.018176
										CHANNELS 3 Xrotation Yrotation Zrotation
										End Site
										{
											OFFSET 0.000000 0.000000 0.000000
										}
									}
								}
							}
						}
					}
				}
			}
		}
	}
	JOINT RightUpLeg
	{
		OFFSET -0.086512 0.000000 -0.025273
		CHANNELS 3 Xrotation Yrotation Zrotation
		JOINT RightLeg
		{
			OFFSET 0.000000 0.000000 -0.433119
			CHANNELS 3 Xrotation Yrotation Zrotation
			JOINT RightFoot
			{
				OFFSET 0.000000 0.000000 -0.404688
				CHANNELS 3 Xrotation Yrotation Zrotation
				JOINT RightToeBase
				{
					OFFSET 0.000000 -0.126496 -0.046041
					CHANNELS 3 Xrotation Yrotation Zrotation
					End Site
					{
						OFFSET 0.000000 0.000000 0.000000
					}
				}
			}
		}
	}
	JOINT LeftUpLeg
	{
		OFFSET 0.086512 0.000000 -0.025273
		CHANNELS 3 Xrotation Yrotation Zrotation
		JOINT LeftLeg
		{
			OFFSET 0.000000 0.000000 -0.433119
			CHANNELS 3 Xrotation Yrotation Zrotation
			JOINT LeftFoot
			{
				OFFSET 0.000000 0.000000 -0.404688
				CHANNELS 3 Xrotation Yrotation Zrotation
				JOINT LeftToeBase
				{
					OFFSET 0.000000 -0.126496 -0.046041
					CHANNELS 3 Xrotation Yrotation Zrotation
					End Site
					{
						OFFSET 0.000000 0.000000 0.000000
					}
				}
			}
		}
	}
}
MOTION
Frames: 15
Frame Time: 0.033333
-1.064831 -0.428206 0.911034 1.141100 0.109600 94.248700 -2.432400 -0.465200 0.203100 -2.032100 -0.835300 -0.010500 -0.246800 -0.750800 0.972000 2.022500 -0.874000 0.777200 12.781800 2.677200 8.616300 0.286400 8.233100 13.251800 -1.893700 5.005000 -2.579600 -21.111900 -17.735400 -8.073600 0.000000 0.000000 22.495600 -13.954700 36.572100 6.981400 0.000000 0.000000 0.000000 0.000000 0.000000 0.000000 -1.283800 -2.611100 2.255300 -5.316600 16.015200 -7.830100 0.000000 0.000000 -15.142200 -7.617700 -24.469100 -4.238600 0.000000 0.000000 0.000000 0.000000 0.000000 0.000000 -0.116000 0.680600 -23.589900 2.267300 0.000000 0.000000 -4.295400 1.158700 4.575700 -0.200700 0.000000 0.000000 1.289300 1.349300 26.087400 -2.337500 0.000000 0.000000 0.396600 3.735400 2.865400 0.485700 0.000000 0.000000 
-1.064892 -0.428201 0.911034 1.146700 0.102400 94.231500 -2.442300 -0.450400 0.208400 -2.036800 -0.842900 -0.011300 -0.231100 -0.728900 0.976700 2.026700 -0.853900 0.761700 12.836200 2.690000 8.398500 0.335500 8.059300 12.847100 -1.893500 4.954800 -2.544800 -21.108200 -17.709800 -8.045200 0.000000 0.000000 22.513300 -13.998100 36.532200 7.040500 0.000000 0.000000 0.000000 0.000000 0.000000 0.000000 -1.275200 -2.627800 2.294000 -5.288900 16.068400 -7.907500 0.000000 0.000000 -15.097000 -7.593100 -24.462500 -4.229100 0.000000 0.000000 0.000000 0.000000 0.000000 0.000000 -0.113900 0.686500 -23.574800 2.267900 0.000000 0.000000 -4.304500 1.175800 4.575600 -0.184900 0.000000 0.000000 1.268200 1.345800 26.246700 -2.278700 0.000000 0.000000 0.373900 3.758000 2.718800 0.469100 0.000000 0.000000 
-1.064974 -0.428186 0.911022 1.156300 0.086800 94.222400 -2.458600 -0.424100 0.217700 -2.047600 -0.848900 -0.011300 -0.200800 -0.695300 0.976300 2.034000 -0.820000 0.737700 12.932000 2.685400 8.012400 0.415300 7.795800 12.155700 -1.896200 4.860200 -2.512400 -21.138200 -17.684300 -8.005100 0.000000 0.000000 22.542000 -14.024200 36.470300 7.078500 0.000000 0.000000 0.000000 0.000000 0.000000 0.000000 -1.260700 -2.663000 2.346000 -5.275600 16.153600 -8.039900 0.000000 0.000000 -15.031700 -7.595300 -24.445200 -4.247900 0.000000 0.000000 0.000000 0.000000 0.000000 0.000000 -0.101100 0.694100 -23.552700 2.261500 0.000000 0.000000 -4.310400 1.194500 4.552800 -0.177000 0.000000 0.000000 1.237500 1.339300 26.475800 -2.183400 0.000000 0.000000 0.332200 3.776400 2.490400 0.451200 0.000000 0.000000 
-1.065040 -0.428191 0.911012 1.160700 0.065500 94.230200 -2.469700 -0.384800 0.230000 -2.060100 -0.856300 -0.011400 -0.169200 -0.663700 0.954200 2.042800 -0.781500 0.715200 13.039200 2.668500 7.546100 0.473700 7.500500 11.393000 -1.890700 4.751800 -2.498900 -21.171500 -17.699100 -7.958800 0.000000 0.000000 22.568900 -13.994900 36.395600 7.029700 0.000000 0.000000 0.000000 0.000000 0.000000 0.000000 -1.244500 -2.714700 2.399100 -5.300800 16.231200 -8.171300 0.000000 0.000000 -14.996600 -7.615400 -24.431300 -4.301800 0.000000 0.000000 0.000000 0.000000 0.000000 0.000000 -0.076300 0.692000 -23.507000 2.244900 0.000000 0.000000 -4.298100 1.196700 4.487000 -0.196800 0.000000 0.000000 1.205800 1.322800 26.705100 -2.076400 0.000000 0.000000 0.279100 3.770000 2.248600 0.459000 0.000000 0.000000 
-1.065101 -0.428198 0.911017 1.161600 0.047100 94.241100 -2.474700 -0.340000 0.245700 -2.066200 -0.854200 -0.011200 -0.144900 -0.645300 0.916900 2.048600 -0.745300 0.696800 13.122900 2.638300 7.077000 0.500500 7.221800 10.675600 -1.874700 4.656500 -2.495700 -21.162900 -17.756400 -7.910800 0.000000 0.000000 22.575100 -13.958000 36.330700 6.976800 0.000000 0.000000 0.000000 0.000000 0.000000 0.000000 -1.223800 -2.779900 2.434000 -5.337400 16.275500 -8.249400 0.000000 0.000000 -15.019900 -7.616900 -24.432700 -4.363100 0.000000 0.000000 0.000000 0.000000 0.000000 0.000000 -0.055900 0.688800 -23.442300 2.234100 0.000000 0.000000 -4.278800 1.189700 4.408800 -0.230000 0.000000 0.000000 1.172800 1.303300 26.924700 -1.973400 0.000000 0.000000 0.239600 3.777100 2.021000 0.458400 0.000000 0.000000 
-1.065162 -0.428142 0.911032 1.162400 0.032400 94.243200 -2.472900 -0.299000 0.255000 -2.066200 -0.848400 -0.010600 -0.123400 -0.634200 0.887000 2.047400 -0.718600 0.683700 13.156200 2.551000 6.650000 0.546100 7.042200 9.980100 -1.860100 4.583500 -2.499900 -21.121500 -17.812700 -7.861400 0.000000 0.000000 22.560600 -13.982500 36.319800 7.016000 0.000000 0.000000 0.000000 0.000000 0.000000 0.000000 -1.201700 -2.844700 2.432500 -5.347700 16.293400 -8.266300 0.000000 0.000000 -15.073600 -7.591600 -24.443600 -4.392900 0.000000 0.000000 0.000000 0.000000 0.000000 0.000000 -0.047200 0.694600 -23.391200 2.241300 0.000000 0.000000 -4.274000 1.192700 4.362800 -0.237400 0.000000 0.000000 1.147800 1.291600 27.096800 -1.891700 0.000000 0.000000 0.220700 3.812400 1.851800 0.420600 0.000000 0.000000 
-1.065212 -0.427970 0.911032 1.164300 0.022600 94.234300 -2.468000 -0.276300 0.251700 -2.064800 -0.835500 -0.009800 -0.097200 -0.631400 0.871700 2.038200 -0.709200 0.680100 13.126400 2.374000 6.305500 0.644300 7.029700 9.337100 -1.854200 4.536100 -2.519500 -21.095000 -17.825900 -7.814800 0.000000 0.000000 22.551900 -14.036300 36.364600 7.091800 0.000000 0.000000 0.000000 0.000000 0.000000 0.000000 -1.193200 -2.881600 2.400700 -5.330200 16.294600 -8.250100 0.000000 0.000000 -15.100500 -7.581400 -24.454400 -4.389900 0.000000 0.000000 0.000000 0.000000 0.000000 0.000000 -0.052400 0.713000 -23.391600 2.269200 0.000000 0.000000 -4.290900 1.200800 4.377000 -0.204500 0.000000 0.000000 1.144300 1.299500 27.147500 -1.863400 0.000000 0.000000 0.205100 3.813100 1.812500 0.401800 0.000000 0.000000 
-1.065230 -0.427706 0.911009 1.161700 0.023700 94.213200 -2.465600 -0.273500 0.242100 -2.066300 -0.816400 -0.009300 -0.072300 -0.643600 0.856500 2.027800 -0.714700 0.686400 13.056300 2.158500 6.066900 0.768900 7.109800 8.865600 -1.855000 4.509100 -2.542200 -21.086100 -17.783100 -7.783800 0.000000 0.000000 22.565600 -14.042400 36.393100 7.113900 0.000000 0.000000 0.000000 0.000000 0.000000 0.000000 -1.195400 -2.884200 2.366500 -5.338500 16.290600 -8.219400 0.000000 0.000000 -15.077500 -7.598200 -24.464000 -4.386600 0.000000 0.000000 0.000000 0.000000 0.000000 0.000000 -0.068500 0.732500 -23.423400 2.298400 0.000000 0.000000 -4.305800 1.184500 4.424800 -0.167900 0.000000 0.000000 1.155900 1.319900 27.098700 -1.887800 0.000000 0.000000 0.176700 3.738700 1.885000 0.455700 0.000000 0.000000 
-1.065210 -0.427424 0.910994 1.153200 0.048900 94.180300 -2.480200 -0.275100 0.237500 -2.076800 -0.800100 -0.007500 -0.053800 -0.665900 0.830800 2.024200 -0.724600 0.697900 13.008700 1.990700 5.917000 0.880100 7.122400 8.603900 -1.861000 4.487400 -2.556800 -21.068100 -17.703000 -7.771700 0.000000 0.000000 22.586900 -14.007400 36.353800 7.121900 0.000000 0.000000 0.000000 0.000000 0.000000 0.000000 -1.201400 -2.866000 2.341500 -5.393100 16.282400 -8.178000 0.000000 0.000000 -15.036000 -7.617900 -24.479900 -4.403700 0.000000 0.000000 0.000000 0.000000 0.000000 0.000000 -0.097500 0.744200 -23.436600 2.303200 0.000000 0.000000 -4.297000 1.142800 4.461900 -0.169500 0.000000 0.000000 1.141700 1.335300 27.119600 -1.904400 0.000000 0.000000 0.145000 3.664000 1.900100 0.520300 0.000000 0.000000 
-1.065098 -0.427142 0.911001 1.147000 0.067100 94.142400 -2.494000 -0.266000 0.238100 -2.090200 -0.804800 -0.009900 -0.042000 -0.677500 0.817100 2.030400 -0.730100 0.699200 13.039100 1.888800 5.826200 0.955600 7.019900 8.481200 -1.873600 4.465100 -2.577100 -21.037000 -17.620200 -7.764300 0.000000 0.000000 22.601700 -14.025800 36.300800 7.192900 0.000000 0.000000 0.000000 0.000000 0.000000 0.000000 -1.211200 -2.849800 2.324400 -5.471400 16.279900 -8.131000 0.000000 0.000000 -15.031900 -7.617700 -24.500700 -4.418900 0.000000 0.000000 0.000000 0.000000 0.000000 0.000000 -0.095700 0.750400 -23.411900 2.267100 0.000000 0.000000 -4.272600 1.110500 4.467200 -0.200700 0.000000 0.000000 1.123800 1.344500 27.294800 -1.880100 0.000000 0.000000 0.129100 3.682900 1.757700 0.499200 0.000000 0.000000 
-1.064923 -0.426809 0.911019 1.149400 0.077800 94.100600 -2.512600 -0.256400 0.238100 -2.102900 -0.805700 -0.010500 -0.019700 -0.690200 0.805400 2.044100 -0.736600 0.701300 13.129100 1.816500 5.790600 0.981500 6.914000 8.439600 -1.889500 4.463300 -2.618300 -21.017300 -17.567400 -7.753600 0.000000 0.000000 22.628300 -14.108400 36.310800 7.281900 0.000000 0.000000 0.000000 0.000000 0.000000 0.000000 -1.233700 -2.825200 2.323400 -5.533400 16.278200 -8.093200 0.000000 0.000000 -15.088100 -7.615200 -24.519300 -4.406700 0.000000 0.000000 0.000000 0.000000 0.000000 0.000000 -0.078700 0.766400 -23.375300 2.222900 0.000000 0.000000 -4.261100 1.107000 4.461700 -0.213600 0.000000 0.000000 1.114100 1.363400 27.498800 -1.842700 0.000000 0.000000 0.126700 3.766200 1.580000 0.410400 0.000000 0.000000 
-1.064720 -0.426397 0.911027 1.158100 0.073100 94.046700 -2.524300 -0.255400 0.230700 -2.109400 -0.799400 -0.011800 0.024500 -0.707200 0.796500 2.060200 -0.746400 0.705100 13.199700 1.733300 5.822800 0.931600 6.916700 8.487600 -1.891800 4.506700 -2.647900 -21.015200 -17.564400 -7.771100 0.000000 0.000000 22.680400 -14.167100 36.358300 7.308200 0.000000 0.000000 0.000000 0.000000 0.000000 0.000000 -1.257500 -2.797500 2.351000 -5.548900 16.275700 -8.073800 0.000000 0.000000 -15.167300 -7.637100 -24.527800 -4.381700 0.000000 0.000000 0.000000 0.000000 0.000000 0.000000 -0.058300 0.797800 -23.359500 2.209600 0.000000 0.000000 -4.268600 1.098400 4.481800 -0.194200 0.000000 0.000000 1.139400 1.400200 27.590600 -1.840900 0.000000 0.000000 0.123500 3.825000 1.528600 0.346500 0.000000 0.000000 
-1.064519 -0.425976 0.911024 1.161800 0.058900 93.975700 -2.519300 -0.262600 0.221000 -2.106800 -0.797900 -0.013300 0.078300 -0.719600 0.793400 2.071600 -0.760500 0.714000 13.181900 1.622000 5.915500 0.788600 7.027300 8.643300 -1.861800 4.593900 -2.641700 -21.021600 -17.611700 -7.849900 0.000000 0.000000 22.729800 -14.140300 36.368000 7.287800 0.000000 0.000000 0.000000 0.000000 0.000000 0.000000 -1.257900 -2.778900 2.372100 -5.518700 16.268200 -8.058100 0.000000 0.000000 -15.204100 -7.673200 -24.526300 -4.370800 0.000000 0.000000 0.000000 0.000000 0.000000 0.000000 -0.045900 0.829900 -23.348800 2.232600 0.000000 0.000000 -4.274500 1.061900 4.522000 -0.184300 0.000000 0.000000 1.181100 1.434600 27.636300 -1.854500 0.000000 0.000000 0.105400 3.827800 1.550200 0.335900 0.000000 0.000000 
-1.064329 -0.425620 0.911017 1.157800 0.054400 93.900600 -2.501200 -0.266400 0.215800 -2.095300 -0.803300 -0.013600 0.118300 -0.723100 0.799400 2.068800 -0.783600 0.728600 13.056100 1.475800 6.066700 0.542200 7.180500 8.924900 -1.802100 4.697100 -2.627900 -21.025900 -17.692200 -7.959400 0.000000 0.000000 22.731900 -14.103500 36.344100 7.277100 0.000000 0.000000 0.000000 0.000000 0.000000 0.000000 -1.238700 -2.767500 2.343200 -5.478200 16.257500 -8.021000 0.000000 0.000000 -15.176400 -7.686100 -24.520500 -4.367600 0.000000 0.000000 0.000000 0.000000 0.000000 0.000000 -0.052100 0.852000 -23.325100 2.269800 0.000000 0.000000 -4.275800 1.038700 4.559400 -0.209600 0.000000 0.000000 1.199000 1.452100 27.759600 -1.840600 0.000000 0.000000 0.071000 3.796300 1.497700 0.341400 0.000000 0.000000 
-1.064125 -0.425338 0.911012 1.151700 0.070800 93.838700 -2.478300 -0.258100 0.213100 -2.081300 -0.800200 -0.013400 0.140300 -0.731200 0.800500 2.049900 -0.822100 0.750400 12.834100 1.302400 6.295500 0.172900 7.319500 9.374300 -1.737700 4.799200 -2.640500 -21.020900 -17.785000 -8.039800 0.000000 0.000000 22.682800 -14.133700 36.347700 7.261500 0.000000 0.000000 0.000000 0.000000 0.000000 0.000000 -1.225200 -2.750400 2.282800 -5.457400 16.251900 -7.965200 0.000000 0.000000 -15.118300 -7.669500 -24.514200 -4.353100 0.000000 0.000000 0.000000 0.000000 0.000000 0.000000 -0.074800 0.867000 -23.309000 2.296800 0.000000 0.000000 -4.289600 1.068700 4.599800 -0.234100 0.000000 0.000000 1.191200 1.464200 27.915300 -1.817400 0.000000 0.000000 0.031000 3.743600 1.389900 0.346800 0.000000 0.000000 
